<?xml version="1.0" encoding="iso-8859-1"?>
<!-- Generator: Adobe Illustrator 19.0.0, SVG Export Plug-In . SVG Version: 6.00 Build 0)  -->
<svg version="1.1" id="Layer_1" xmlns="http://www.w3.org/2000/svg" xmlns:xlink="http://www.w3.org/1999/xlink" x="0px" y="0px"
	 viewBox="0 0 511.999 511.999" style="enable-background:new 0 0 511.999 511.999;" xml:space="preserve">
<path style="fill:none;" d="M397.721,43.801l-72.759-17.309c0,0-20.28,35.701-68.962,35.701s-68.962-35.701-68.962-35.701
	l-72.759,17.309L8.258,138.844l52.876,81.868l53.145-24.904V485.51h283.443V195.807l53.145,24.904l52.876-81.868L397.721,43.801z"/>
<polygon style="fill:#FFCE6E;" points="255.999,116.402 176.363,254.337 335.637,254.337 "/>
<path d="M509.253,132.695l-106.02-95.042c-1.024-0.918-2.263-1.567-3.6-1.885l-72.759-17.31c-3.572-0.85-7.278,0.761-9.093,3.955
	c-0.178,0.316-18.408,31.522-61.781,31.522c-42.988,0-61.052-30.266-61.781-31.522c-1.813-3.192-5.519-4.806-9.092-3.955
	l-72.759,17.31c-1.339,0.318-2.577,0.967-3.602,1.885L2.746,132.695c-3.024,2.711-3.628,7.218-1.425,10.629l52.875,81.868
	c2.241,3.471,6.7,4.749,10.441,2.998l41.383-19.393v276.713c0,4.561,3.697,8.258,8.258,8.258h283.443
	c4.562,0,8.258-3.697,8.258-8.258V208.796l41.383,19.393c3.739,1.752,8.201,0.472,10.44-2.998l52.875-81.868
	C512.882,139.912,512.277,135.405,509.253,132.695z M447.841,210.174l-46.616-21.845c-2.556-1.198-5.552-1.007-7.934,0.509
	c-2.384,1.515-3.828,4.144-3.828,6.969V477.25H122.536V195.807c0-2.824-1.444-5.454-3.827-6.969
	c-2.385-1.515-5.378-1.708-7.935-0.509l-46.616,21.845L19.02,140.286l99.209-88.937l65.196-15.51
	c8.212,10.872,30.916,34.611,72.574,34.611c41.659,0,64.362-23.739,72.574-34.611l65.197,15.51l99.209,88.937L447.841,210.174z"/>
<path d="M263.151,112.273c-1.475-2.554-4.201-4.129-7.151-4.129c-2.95,0-5.676,1.575-7.151,4.129l-79.637,137.935
	c-1.475,2.554-1.475,5.704,0,8.258s4.201,4.129,7.151,4.129h33.032c4.561,0,8.258-3.697,8.258-8.258s-3.697-8.258-8.258-8.258
	h-18.729l65.334-113.161l65.333,113.161h-78.906c-4.561,0-8.258,3.697-8.258,8.258s3.697,8.258,8.258,8.258h93.209
	c2.951,0,5.676-1.575,7.151-4.129s1.475-5.704,0-8.258L263.151,112.273z"/>
</svg>
