<?xml version="1.0" standalone="no"?>
<!DOCTYPE svg PUBLIC "-//W3C//DTD SVG 20010904//EN"
 "http://www.w3.org/TR/2001/REC-SVG-20010904/DTD/svg10.dtd">
<svg version="1.0" xmlns="http://www.w3.org/2000/svg"
 width="1280.000000pt" height="640.000000pt" viewBox="0 0 1280.000000 640.000000"
 preserveAspectRatio="xMidYMid meet">
<g transform="translate(0.000000,640.000000) scale(0.100000,-0.100000)"
fill="#000000" stroke="none">
<path d="M12640 4719 c-1345 -539 -2798 -934 -4170 -1133 -1126 -163 -2317
-209 -3445 -131 -1356 94 -2702 350 -4075 775 -264 82 -659 213 -843 280 -73
27 -78 28 -87 11 -8 -16 13 -26 213 -96 122 -43 223 -79 224 -79 1 -1 20 -112
42 -247 22 -134 87 -530 145 -879 58 -349 110 -672 118 -717 7 -46 15 -83 18
-82 3 0 289 315 635 700 347 385 642 711 657 725 l26 26 138 -33 137 -34 18
-60 c17 -59 336 -1147 468 -1597 36 -126 69 -227 73 -225 4 1 257 359 564 795
l557 793 41 -6 c22 -4 131 -17 241 -30 110 -12 185 -23 167 -24 -28 -1 -31 -4
-23 -18 5 -10 63 -148 129 -308 352 -849 614 -1481 619 -1489 3 -5 13 4 21 20
8 16 221 404 474 862 253 458 459 835 457 837 -3 2 -61 8 -129 13 -109 8 -79
9 225 10 l350 2 485 -850 c267 -467 487 -850 490 -850 4 0 682 1693 726 1812
5 16 -2 17 -83 13 -87 -4 -88 -4 -23 5 36 5 177 26 313 46 139 20 252 32 257
28 4 -5 270 -353 589 -774 320 -421 585 -766 589 -768 4 -1 35 109 70 245 34
137 141 559 237 938 96 380 177 699 178 709 3 16 33 27 171 64 105 28 170 41
174 35 28 -41 1338 -1403 1340 -1392 2 16 64 460 182 1324 44 319 82 589 85
601 4 16 42 35 190 93 151 59 185 76 185 92 0 10 -3 19 -7 19 -5 0 -64 -23
-133 -51z m-4497 -1226 c-7 -2 -21 -2 -30 0 -10 3 -4 5 12 5 17 0 24 -2 18 -5z"/>
</g>
</svg>
